<?xml version="1.0" standalone="no"?>
<!DOCTYPE svg PUBLIC "-//W3C//DTD SVG 20010904//EN"
 "http://www.w3.org/TR/2001/REC-SVG-20010904/DTD/svg10.dtd">
<svg version="1.0" xmlns="http://www.w3.org/2000/svg"
 width="600.000000pt" height="235.000000pt" viewBox="0 0 600.000000 235.000000"
 preserveAspectRatio="xMidYMid meet">

<g transform="translate(0.000000,235.000000) scale(0.100000,-0.100000)"
fill="#000000" stroke="none">
<path d="M0 1175 l0 -1175 373 0 372 0 460 400 c253 219 465 398 470 397 13
-3 370 -365 364 -370 -9 -7 -465 -401 -479 -413 -12 -12 23 -14 227 -14 l241
0 -19 37 c-11 21 -19 58 -19 85 0 41 4 50 33 71 17 13 58 35 89 47 57 23 57
24 69 79 17 82 38 129 62 137 39 12 50 -20 43 -126 -3 -52 -8 -105 -12 -116
-4 -17 0 -24 24 -32 35 -12 56 -44 47 -73 -4 -10 -22 -40 -41 -64 l-34 -45
763 2 762 3 42 85 c24 47 52 121 64 165 l21 81 -26 39 c-14 22 -29 44 -33 49
-5 5 -82 59 -173 120 -158 106 -165 112 -165 144 0 38 -41 81 -78 83 -54 3
-96 -4 -145 -22 -63 -23 -110 -25 -118 -4 -3 7 7 31 22 52 37 51 49 63 35 36
-14 -28 -12 -28 50 -6 53 19 67 40 49 73 -27 51 -94 11 -151 -89 -21 -38 -53
-60 -67 -47 -10 10 16 93 57 186 l37 85 40 -1 c26 0 71 -16 130 -45 82 -41 92
-49 125 -103 19 -33 45 -66 57 -74 21 -14 25 -13 45 7 13 11 31 21 40 21 8 0
100 -57 203 -126 104 -69 204 -134 224 -144 50 -25 68 -49 82 -106 14 -57 17
-287 5 -391 l-8 -73 920 0 921 0 0 1175 0 1175 -3000 0 -3000 0 0 -1175z
m4480 990 c7 -8 10 -25 6 -40 -6 -25 -8 -25 -104 -25 -100 0 -122 7 -122 40 0
32 23 40 116 40 69 0 95 -4 104 -15z m-3349 -48 c-9 -24 -7 -28 34 -52 25 -14
60 -47 80 -73 19 -26 38 -52 43 -57 13 -16 32 -100 32 -143 0 -48 -26 -136
-48 -165 -34 -44 -103 -105 -133 -117 -26 -11 -29 -17 -24 -38 l6 -26 -18 22
c-16 19 -22 20 -68 11 -57 -11 -132 -4 -188 18 -35 15 -39 14 -53 -3 -14 -18
-15 -18 -5 2 9 19 6 26 -27 50 -20 16 -45 38 -55 49 -26 29 -67 116 -67 143 0
14 -8 26 -22 32 -16 6 -18 9 -7 9 12 1 19 14 24 49 9 62 35 120 75 165 28 33
31 39 19 55 -13 15 -12 16 2 4 14 -11 25 -8 67 17 82 48 164 59 278 36 26 -6
32 -3 42 20 16 34 26 27 13 -8z m4175 -8 c181 -111 98 -378 -119 -382 l-48 -1
-51 -95 c-28 -53 -65 -121 -82 -151 -45 -79 -61 -116 -44 -103 7 6 22 13 33
16 11 3 87 33 168 66 81 34 152 61 158 61 5 0 19 -20 31 -45 13 -26 29 -45 38
-45 21 0 52 -64 38 -78 -6 -6 -5 -20 6 -40 9 -17 16 -37 16 -44 -1 -7 -11 6
-23 29 l-22 42 -65 -29 c-36 -16 -71 -30 -77 -30 -12 0 -43 49 -43 68 0 5 11
14 25 20 35 16 44 14 21 -3 -16 -12 -18 -19 -8 -40 7 -14 19 -24 29 -24 16 1
16 2 1 6 -22 6 -31 32 -17 49 15 18 33 18 49 -1 10 -12 10 -18 0 -30 -8 -10 5
-7 41 9 59 26 65 34 46 61 -14 17 -16 18 -56 2 -57 -23 -74 -21 -28 4 20 11
37 22 37 25 0 2 -9 23 -20 45 -25 48 -18 49 -180 -30 -63 -31 -118 -56 -122
-57 -5 -1 -11 -2 -15 -3 -3 0 4 -12 17 -26 27 -29 23 -30 -47 -11 -28 8 -54
11 -57 8 -8 -7 35 -53 44 -47 4 3 7 -3 6 -13 0 -9 5 -16 12 -14 8 1 11 -2 8
-7 -3 -5 1 -28 9 -51 42 -118 -14 -248 -136 -315 -47 -26 -64 -30 -134 -30
-98 0 -154 23 -217 88 l-43 45 -85 -4 c-47 -2 -99 -6 -116 -9 -38 -7 -44 7
-44 111 0 131 62 270 161 359 l44 40 11 -90 c6 -50 15 -104 19 -122 l7 -32 32
41 c49 64 122 100 219 107 l80 6 105 184 c88 152 103 186 93 200 -68 93 -65
198 7 274 72 76 198 92 288 36z m-736 -239 l0 -170 -185 0 -185 0 0 43 c-1 84
-2 243 -1 270 l1 27 185 0 185 0 0 -170z m-962 119 c114 -22 211 -45 216 -49
6 -6 -4 -68 -24 -158 l-32 -148 -47 12 c-25 6 -127 27 -227 45 l-180 34 13 60
c47 209 56 245 65 245 5 0 103 -18 216 -41z m-482 -44 c34 -79 32 -92 -17
-106 -35 -11 -40 -16 -36 -36 2 -12 -1 -27 -7 -31 -6 -5 -145 -55 -310 -111
-164 -56 -304 -105 -310 -107 -7 -3 -21 -30 -30 -61 -34 -107 -146 -196 -265
-210 -65 -7 -149 12 -207 49 -41 26 -52 29 -79 20 -16 -5 -142 -49 -280 -97
-294 -103 -299 -104 -314 -76 -11 19 -13 19 -53 5 -39 -14 -44 -13 -56 3 -21
29 -47 122 -36 132 5 5 110 43 234 85 l225 77 44 127 c24 70 49 132 55 138 6
6 120 48 253 94 215 73 242 85 247 106 9 36 49 51 80 31 19 -13 31 -14 55 -6
28 10 42 5 166 -61 l136 -72 207 72 c114 39 216 75 227 80 37 16 46 10 71 -45z
m1021 -62 c-20 -2 -52 -2 -70 0 -17 2 0 4 38 4 39 0 53 -2 32 -4z m0 -90 c-20
-2 -52 -2 -70 0 -17 2 0 4 38 4 39 0 53 -2 32 -4z m281 -258 c-7 -7 -92 -74
-188 -150 l-175 -138 0 -53 c0 -45 -4 -57 -29 -83 -16 -17 -38 -33 -48 -37
-25 -8 -23 -26 14 -95 55 -102 137 -188 254 -267 124 -83 174 -173 174 -312 0
-45 -5 -82 -11 -85 -7 -5 -8 12 -4 52 12 100 -30 220 -96 279 -13 12 -53 41
-89 64 -107 71 -227 209 -281 324 -9 18 -27 33 -51 41 -36 12 -37 12 -115 -51
l-78 -62 -6 36 c-15 86 -52 472 -46 479 9 8 768 81 780 75 5 -2 3 -10 -5 -17z
m-1510 -113 c4 -14 -39 -33 -53 -22 -5 4 -91 -23 -190 -61 -143 -54 -180 -71
-180 -86 0 -14 -13 -20 -65 -29 -36 -7 -67 -10 -68 -9 -2 2 21 20 51 40 62 41
413 178 437 170 8 -2 22 0 30 5 18 11 32 8 38 -8z m-52 -69 c-12 -13 -175 -71
-181 -65 -3 3 32 20 77 38 82 31 118 41 104 27z m-1799 -227 l122 -86 -125
-157 c-69 -86 -131 -165 -138 -175 -13 -18 -21 -14 -145 74 -79 56 -129 98
-126 106 3 7 62 84 132 172 80 99 134 158 143 156 8 -1 70 -42 137 -90z m815
-10 c16 -44 27 -80 26 -81 -5 -5 -313 -103 -332 -107 -14 -2 -24 12 -47 76
-16 43 -27 81 -25 83 8 8 331 112 340 110 5 -2 22 -38 38 -81z m38 14 c0 -5
-4 -10 -10 -10 -5 0 -10 5 -10 10 0 6 5 10 10 10 6 0 10 -4 10 -10z m-430 -60
c0 -5 -4 -10 -10 -10 -5 0 -10 5 -10 10 0 6 5 10 10 10 6 0 10 -4 10 -10z m21
-66 c5 -15 8 -29 5 -31 -2 -2 -8 10 -14 26 -13 38 -5 41 9 5z m3744 -250 c18
-18 16 -33 -7 -47 -35 -22 -66 21 -36 51 16 16 23 15 43 -4z m-2105 -53 c0 -6
-4 -13 -10 -16 -5 -3 -10 1 -10 9 0 9 5 16 10 16 6 0 10 -4 10 -9z m1990 -108
c0 -56 -4 -93 -10 -93 -6 0 -10 42 -10 108 0 73 3 102 10 92 5 -8 10 -57 10
-107z m29 25 c-2 -83 -2 -88 -9 -43 -12 72 -12 135 0 135 6 0 9 -37 9 -92z
m83 27 c3 -16 -1 -30 -13 -41 -18 -16 -19 -15 -19 24 0 47 24 60 32 17z m108
-33 c0 -4 -36 -43 -80 -87 -44 -44 -80 -75 -80 -69 0 6 32 45 71 87 65 71 89
89 89 69z m-250 -79 c0 -23 -4 -44 -9 -47 -9 -6 -21 92 -13 108 9 16 22 -20
22 -61z m280 59 c0 -13 -159 -166 -166 -160 -3 4 29 43 72 87 72 75 94 93 94
73z m86 -6 c15 -12 17 -18 8 -33 -15 -24 -58 -24 -62 0 -4 18 14 47 27 47 4 0
16 -6 27 -14z m-256 -71 c-24 -24 -46 -42 -49 -40 -6 7 70 85 83 85 6 0 -10
-20 -34 -45z m190 -8 c0 -16 -111 -127 -128 -127 -25 0 -10 26 45 82 56 56 83
71 83 45z"/>
<path d="M906 2021 c-11 -18 6 -41 30 -41 13 0 24 4 24 9 0 5 3 16 6 25 5 12
-1 16 -24 16 -17 0 -33 -4 -36 -9z"/>
<path d="M990 2005 c0 -20 5 -25 25 -25 24 0 51 31 38 44 -3 3 -19 6 -35 6
-23 0 -28 -4 -28 -25z"/>
<path d="M836 1995 c-16 -12 -17 -17 -6 -30 24 -29 66 -11 55 24 -7 24 -22 26
-49 6z"/>
<path d="M1087 1978 c-8 -29 13 -41 35 -21 39 35 15 -5 -27 -47 -27 -27 -45
-53 -45 -67 0 -18 -6 -23 -24 -23 -16 0 -57 -31 -127 -96 -57 -53 -103 -99
-102 -103 1 -3 9 -10 18 -16 12 -8 20 -5 30 9 19 25 30 14 15 -13 -9 -18 -7
-22 15 -31 32 -12 45 -6 45 21 0 10 4 19 10 19 5 0 7 -13 4 -30 -6 -26 -4 -30
15 -30 16 0 21 6 21 25 0 14 5 25 10 25 6 0 10 -11 10 -25 0 -26 22 -33 49
-16 13 8 13 12 1 26 -12 14 -12 18 1 25 10 7 18 2 27 -15 12 -24 14 -25 42
-10 30 15 39 38 20 50 -5 3 -10 12 -10 18 1 7 10 1 20 -12 l20 -23 20 23 c25
31 25 46 0 59 -11 6 -18 15 -15 20 4 6 16 3 30 -6 23 -15 24 -15 34 23 15 52
15 51 -21 56 l-33 4 33 1 c32 2 33 3 27 35 -10 47 -14 50 -40 33 -20 -13 -24
-13 -29 -1 -3 10 3 17 19 21 35 9 31 22 -21 71 -53 48 -69 53 -77 21z m50
-135 c-16 -16 -18 -16 -34 0 -17 17 -17 19 2 33 17 12 21 12 34 -1 14 -13 13
-17 -2 -32z m28 -63 c11 -17 -5 -32 -21 -19 -7 6 -11 15 -8 20 7 12 21 11 29
-1z m-70 -20 c3 -5 -1 -10 -10 -10 -9 0 -13 5 -10 10 3 6 8 10 10 10 2 0 7 -4
10 -10z m-47 -78 c3 -16 -2 -22 -16 -22 -24 0 -35 23 -19 39 16 16 31 8 35
-17z m72 12 c0 -8 -5 -12 -10 -9 -6 4 -8 11 -5 16 9 14 15 11 15 -7z m-210
-34 c0 -5 -4 -10 -10 -10 -5 0 -10 5 -10 10 0 6 5 10 10 10 6 0 10 -4 10 -10z
m70 -10 c0 -5 -4 -10 -10 -10 -5 0 -10 5 -10 10 0 6 5 10 10 10 6 0 10 -4 10
-10z"/>
<path d="M774 1939 c-16 -17 -16 -22 -4 -29 21 -14 36 -12 50 5 10 12 10 18 0
30 -16 20 -23 19 -46 -6z"/>
<path d="M741 1881 c-5 -9 -12 -34 -16 -54 -7 -38 -7 -39 21 -35 21 2 30 9 32
26 2 13 -2 22 -10 22 -8 0 -6 4 5 11 23 14 22 35 -3 42 -13 3 -24 -1 -29 -12z"/>
<path d="M730 1746 c0 -35 11 -46 33 -34 29 14 28 13 21 32 -8 20 -54 22 -54
2z"/>
<path d="M763 1692 c-10 -6 -9 -13 3 -31 15 -21 17 -21 35 -5 29 27 -4 58 -38
36z"/>
<path d="M5241 1836 c-17 -20 -2 -46 25 -46 29 0 41 24 24 45 -16 19 -34 19
-49 1z"/>
<path d="M4754 1215 c-8 -21 2 -45 19 -45 21 0 38 25 31 44 -8 20 -43 21 -50
1z"/>
<path d="M4225 2010 c-7 -12 2 -30 16 -30 12 0 12 27 0 35 -5 3 -12 1 -16 -5z"/>
<path d="M4314 2000 c-27 -11 -72 -65 -80 -96 -9 -35 3 -88 27 -118 63 -80
198 -74 251 11 60 99 -9 214 -128 212 -27 0 -58 -4 -70 -9z m115 -55 c32 -16
41 -33 41 -79 0 -59 -66 -96 -126 -71 -61 25 -72 88 -25 136 33 32 67 37 110
14z"/>
<path d="M3915 1387 c-12 -63 -6 -72 55 -75 72 -3 89 7 70 42 -16 31 -50 54
-89 62 -28 6 -30 4 -36 -29z"/>
</g>
</svg>
