<?xml version="1.0" standalone="no"?>
<!DOCTYPE svg PUBLIC "-//W3C//DTD SVG 20010904//EN"
 "http://www.w3.org/TR/2001/REC-SVG-20010904/DTD/svg10.dtd">
<svg version="1.0" xmlns="http://www.w3.org/2000/svg"
 width="400.000000pt" height="400.000000pt" viewBox="0 0 400.000000 400.000000"
 preserveAspectRatio="xMidYMid meet">
<metadata>
Created by potrace 1.11, written by Peter Selinger 2001-2013
</metadata>
<g transform="translate(0.000000,400.000000) scale(0.100000,-0.100000)"
fill="#000000" stroke="none">
<path d="M1953 3708 c-6 -7 -22 -33 -35 -58 -14 -25 -119 -207 -233 -405 -114
-198 -219 -380 -233 -405 -14 -25 -33 -56 -42 -70 -9 -14 -19 -29 -21 -35 -4
-9 -111 -197 -150 -263 -9 -15 -128 -220 -264 -457 -136 -236 -259 -447 -272
-467 -12 -21 -23 -40 -23 -43 0 -2 -22 -42 -49 -87 -121 -206 -181 -309 -181
-312 0 -2 -17 -33 -38 -67 -22 -35 -50 -84 -64 -109 -14 -25 -59 -104 -101
-177 -42 -72 -85 -147 -95 -165 -11 -18 -45 -77 -76 -131 -72 -123 -78 -140
-40 -106 16 14 67 55 114 90 46 35 91 70 100 76 17 14 900 694 943 727 16 11
41 30 55 42 15 12 119 92 232 179 l205 157 7 64 c3 35 16 84 27 108 22 45 97
126 116 126 7 0 19 8 28 18 16 17 16 20 32 367 3 55 7 138 10 185 3 47 7 139
10 205 11 234 14 291 20 415 7 127 8 148 20 395 4 77 8 157 9 178 3 41 3 42
-11 25z"/>
<path d="M2035 3655 c2 -38 7 -128 11 -200 3 -71 7 -166 9 -210 2 -44 6 -138
10 -210 3 -71 8 -164 10 -205 3 -41 7 -129 10 -195 3 -66 7 -160 10 -210 2
-49 7 -146 10 -215 13 -262 13 -264 33 -280 11 -8 35 -28 55 -43 47 -37 95
-135 100 -204 l3 -51 164 -126 c91 -69 181 -138 200 -153 26 -21 513 -397 690
-533 14 -11 162 -125 330 -254 168 -129 306 -233 308 -232 1 2 -79 145 -179
317 -100 173 -191 330 -201 349 -11 19 -37 64 -58 100 -21 36 -47 81 -58 100
-23 41 -175 304 -254 440 -30 52 -126 219 -213 370 -87 151 -168 291 -180 310
-12 19 -34 58 -50 85 -26 48 -397 691 -619 1074 -58 101 -106 186 -106 190 0
3 -9 17 -20 31 l-20 25 5 -70z"/>
<path d="M2120 1389 c-48 -25 -65 -28 -135 -26 -61 2 -91 8 -126 26 -54 27
-44 30 -189 -64 -292 -188 -421 -271 -437 -280 -10 -6 -56 -35 -103 -66 -47
-31 -161 -105 -255 -164 -93 -60 -216 -138 -272 -174 -57 -36 -208 -133 -337
-216 l-235 -150 985 -3 c542 -1 1425 -1 1963 0 l977 3 -365 235 c-201 128
-584 374 -851 545 -267 172 -503 323 -525 337 l-40 24 -55 -27z"/>
</g>
</svg>
